<svg xmlns="http://www.w3.org/2000/svg" viewBox="0 0 420 580" role="img" aria-label="Aranha da Cripta"><defs><radialGradient id="bg"><stop stop-color="#36612b"/><stop offset=".65" stop-color="#19111d"/><stop offset="1" stop-color="#06070b"/></radialGradient><linearGradient id="armor"><stop stop-color="#36612b"/><stop offset=".55" stop-color="#13121a"/><stop offset="1" stop-color="#ade17a"/></linearGradient></defs><rect width="420" height="580" fill="url(#bg)"/><g fill="none" stroke="#ade17a" stroke-opacity=".3"><circle cx="210" cy="228" r="159"/><circle cx="210" cy="228" r="176" stroke-dasharray="9 12"/></g><circle cx="292" cy="433" r="3" fill="#ade17a" opacity=".6"/><circle cx="389" cy="24" r="1.3" fill="#ade17a" opacity=".6"/><circle cx="66" cy="155" r="1.3" fill="#ade17a" opacity=".6"/><circle cx="163" cy="286" r="1.3" fill="#ade17a" opacity=".6"/><circle cx="260" cy="417" r="1.3" fill="#ade17a" opacity=".6"/><circle cx="357" cy="8" r="1.3" fill="#ade17a" opacity=".6"/><circle cx="34" cy="139" r="1.3" fill="#ade17a" opacity=".6"/><circle cx="131" cy="270" r="3" fill="#ade17a" opacity=".6"/><circle cx="228" cy="401" r="1.3" fill="#ade17a" opacity=".6"/><circle cx="325" cy="532" r="1.3" fill="#ade17a" opacity=".6"/><circle cx="2" cy="123" r="1.3" fill="#ade17a" opacity=".6"/><circle cx="99" cy="254" r="1.3" fill="#ade17a" opacity=".6"/><circle cx="196" cy="385" r="1.3" fill="#ade17a" opacity=".6"/><circle cx="293" cy="516" r="1.3" fill="#ade17a" opacity=".6"/><circle cx="390" cy="107" r="3" fill="#ade17a" opacity=".6"/><circle cx="67" cy="238" r="1.3" fill="#ade17a" opacity=".6"/><circle cx="164" cy="369" r="1.3" fill="#ade17a" opacity=".6"/><circle cx="261" cy="500" r="1.3" fill="#ade17a" opacity=".6"/><circle cx="358" cy="91" r="1.3" fill="#ade17a" opacity=".6"/><circle cx="35" cy="222" r="1.3" fill="#ade17a" opacity=".6"/><circle cx="132" cy="353" r="1.3" fill="#ade17a" opacity=".6"/><circle cx="229" cy="484" r="3" fill="#ade17a" opacity=".6"/><circle cx="326" cy="75" r="1.3" fill="#ade17a" opacity=".6"/><circle cx="3" cy="206" r="1.3" fill="#ade17a" opacity=".6"/><circle cx="100" cy="337" r="1.3" fill="#ade17a" opacity=".6"/><circle cx="197" cy="468" r="1.3" fill="#ade17a" opacity=".6"/><circle cx="294" cy="59" r="1.3" fill="#ade17a" opacity=".6"/><circle cx="391" cy="190" r="1.3" fill="#ade17a" opacity=".6"/><circle cx="68" cy="321" r="3" fill="#ade17a" opacity=".6"/><circle cx="165" cy="452" r="1.3" fill="#ade17a" opacity=".6"/><circle cx="262" cy="43" r="1.3" fill="#ade17a" opacity=".6"/><circle cx="359" cy="174" r="1.3" fill="#ade17a" opacity=".6"/><circle cx="36" cy="305" r="1.3" fill="#ade17a" opacity=".6"/><circle cx="133" cy="436" r="1.3" fill="#ade17a" opacity=".6"/><circle cx="230" cy="27" r="1.3" fill="#ade17a" opacity=".6"/><circle cx="327" cy="158" r="3" fill="#ade17a" opacity=".6"/><circle cx="4" cy="289" r="1.3" fill="#ade17a" opacity=".6"/><path d="M166 257 Q128 271 98 420 L163 398 L189 313 L189 420 L228 420 L232 320 L256 399 L322 422 Q296 272 250 255Z" fill="url(#armor)" stroke="#ade17a" stroke-width="3"/><path d="M170 156 Q202 114 247 157 L252 220 Q247 257 207 266 Q174 251 163 218Z" fill="url(#armor)" stroke="#ade17a" stroke-width="4"/><path d="M173 203 L200 207 L192 223 L176 218 M218 207 L248 203 L245 218 L224 223" fill="#ade17a"/><path d="M193 248 Q209 236 229 246" fill="none" stroke="#ade17a" stroke-width="3"/><path d="M0 426 Q210 379 420 426 V580 H0Z" fill="#0b090e" opacity=".94"/><text x="210" y="467" fill="#ade17a" text-anchor="middle" font-size="12" letter-spacing="4" font-family="serif">HURRAS · NEXALIS</text><text x="210" y="506" fill="#f6ead5" text-anchor="middle" font-size="21" font-family="serif" font-weight="bold">Aranha da Cripta</text><text x="210" y="543" fill="#ade17a" font-size="12" font-family="sans-serif" text-anchor="middle">FERA · NIVEL 5</text></svg>