<svg xmlns="http://www.w3.org/2000/svg" viewBox="0 0 420 580" role="img" aria-label="Corvo Observador"><defs><radialGradient id="bg"><stop stop-color="#30614c"/><stop offset=".65" stop-color="#19111d"/><stop offset="1" stop-color="#06070b"/></radialGradient><linearGradient id="armor"><stop stop-color="#30614c"/><stop offset=".55" stop-color="#13121a"/><stop offset="1" stop-color="#a6e5c9"/></linearGradient></defs><rect width="420" height="580" fill="url(#bg)"/><g fill="none" stroke="#a6e5c9" stroke-opacity=".3"><circle cx="210" cy="228" r="159"/><circle cx="210" cy="228" r="176" stroke-dasharray="9 12"/></g><circle cx="69" cy="263" r="3" fill="#a6e5c9" opacity=".6"/><circle cx="166" cy="394" r="1.3" fill="#a6e5c9" opacity=".6"/><circle cx="263" cy="525" r="1.3" fill="#a6e5c9" opacity=".6"/><circle cx="360" cy="116" r="1.3" fill="#a6e5c9" opacity=".6"/><circle cx="37" cy="247" r="1.3" fill="#a6e5c9" opacity=".6"/><circle cx="134" cy="378" r="1.3" fill="#a6e5c9" opacity=".6"/><circle cx="231" cy="509" r="1.3" fill="#a6e5c9" opacity=".6"/><circle cx="328" cy="100" r="3" fill="#a6e5c9" opacity=".6"/><circle cx="5" cy="231" r="1.3" fill="#a6e5c9" opacity=".6"/><circle cx="102" cy="362" r="1.3" fill="#a6e5c9" opacity=".6"/><circle cx="199" cy="493" r="1.3" fill="#a6e5c9" opacity=".6"/><circle cx="296" cy="84" r="1.3" fill="#a6e5c9" opacity=".6"/><circle cx="393" cy="215" r="1.3" fill="#a6e5c9" opacity=".6"/><circle cx="70" cy="346" r="1.3" fill="#a6e5c9" opacity=".6"/><circle cx="167" cy="477" r="3" fill="#a6e5c9" opacity=".6"/><circle cx="264" cy="68" r="1.3" fill="#a6e5c9" opacity=".6"/><circle cx="361" cy="199" r="1.3" fill="#a6e5c9" opacity=".6"/><circle cx="38" cy="330" r="1.3" fill="#a6e5c9" opacity=".6"/><circle cx="135" cy="461" r="1.3" fill="#a6e5c9" opacity=".6"/><circle cx="232" cy="52" r="1.3" fill="#a6e5c9" opacity=".6"/><circle cx="329" cy="183" r="1.3" fill="#a6e5c9" opacity=".6"/><circle cx="6" cy="314" r="3" fill="#a6e5c9" opacity=".6"/><circle cx="103" cy="445" r="1.3" fill="#a6e5c9" opacity=".6"/><circle cx="200" cy="36" r="1.3" fill="#a6e5c9" opacity=".6"/><circle cx="297" cy="167" r="1.3" fill="#a6e5c9" opacity=".6"/><circle cx="394" cy="298" r="1.3" fill="#a6e5c9" opacity=".6"/><circle cx="71" cy="429" r="1.3" fill="#a6e5c9" opacity=".6"/><circle cx="168" cy="20" r="1.3" fill="#a6e5c9" opacity=".6"/><circle cx="265" cy="151" r="3" fill="#a6e5c9" opacity=".6"/><circle cx="362" cy="282" r="1.3" fill="#a6e5c9" opacity=".6"/><circle cx="39" cy="413" r="1.3" fill="#a6e5c9" opacity=".6"/><circle cx="136" cy="4" r="1.3" fill="#a6e5c9" opacity=".6"/><circle cx="233" cy="135" r="1.3" fill="#a6e5c9" opacity=".6"/><circle cx="330" cy="266" r="1.3" fill="#a6e5c9" opacity=".6"/><circle cx="7" cy="397" r="1.3" fill="#a6e5c9" opacity=".6"/><circle cx="104" cy="528" r="3" fill="#a6e5c9" opacity=".6"/><circle cx="201" cy="119" r="1.3" fill="#a6e5c9" opacity=".6"/><path d="M163 266 Q39 132 22 286 Q89 260 99 369 L165 319 M250 266 Q374 132 397 286 Q325 260 319 369 L253 319" fill="#30614c" stroke="#a6e5c9" stroke-width="4"/><path d="M166 257 Q128 271 98 420 L163 398 L189 313 L189 420 L228 420 L232 320 L256 399 L322 422 Q296 272 250 255Z" fill="url(#armor)" stroke="#a6e5c9" stroke-width="3"/><path d="M170 156 Q202 114 247 157 L252 220 Q247 257 207 266 Q174 251 163 218Z" fill="url(#armor)" stroke="#a6e5c9" stroke-width="4"/><path d="M173 203 L200 207 L192 223 L176 218 M218 207 L248 203 L245 218 L224 223" fill="#a6e5c9"/><path d="M193 248 Q209 236 229 246" fill="none" stroke="#a6e5c9" stroke-width="3"/><path d="M0 426 Q210 379 420 426 V580 H0Z" fill="#0b090e" opacity=".94"/><text x="210" y="467" fill="#a6e5c9" text-anchor="middle" font-size="12" letter-spacing="4" font-family="serif">HURRAS · NEXALIS</text><text x="210" y="506" fill="#f6ead5" text-anchor="middle" font-size="21" font-family="serif" font-weight="bold">Corvo Observador</text><text x="210" y="543" fill="#a6e5c9" font-size="12" font-family="sans-serif" text-anchor="middle">ANIMAL · NIVEL 1</text></svg>