<svg xmlns="http://www.w3.org/2000/svg" viewBox="0 0 420 580" role="img" aria-label="Espírito Errante"><defs><radialGradient id="bg"><stop stop-color="#48283b"/><stop offset=".65" stop-color="#19111d"/><stop offset="1" stop-color="#06070b"/></radialGradient><linearGradient id="armor"><stop stop-color="#48283b"/><stop offset=".55" stop-color="#13121a"/><stop offset="1" stop-color="#d5a5c8"/></linearGradient></defs><rect width="420" height="580" fill="url(#bg)"/><g fill="none" stroke="#d5a5c8" stroke-opacity=".3"><circle cx="210" cy="228" r="159"/><circle cx="210" cy="228" r="176" stroke-dasharray="9 12"/></g><circle cx="109" cy="409" r="3" fill="#d5a5c8" opacity=".6"/><circle cx="206" cy="0" r="1.3" fill="#d5a5c8" opacity=".6"/><circle cx="303" cy="131" r="1.3" fill="#d5a5c8" opacity=".6"/><circle cx="400" cy="262" r="1.3" fill="#d5a5c8" opacity=".6"/><circle cx="77" cy="393" r="1.3" fill="#d5a5c8" opacity=".6"/><circle cx="174" cy="524" r="1.3" fill="#d5a5c8" opacity=".6"/><circle cx="271" cy="115" r="1.3" fill="#d5a5c8" opacity=".6"/><circle cx="368" cy="246" r="3" fill="#d5a5c8" opacity=".6"/><circle cx="45" cy="377" r="1.3" fill="#d5a5c8" opacity=".6"/><circle cx="142" cy="508" r="1.3" fill="#d5a5c8" opacity=".6"/><circle cx="239" cy="99" r="1.3" fill="#d5a5c8" opacity=".6"/><circle cx="336" cy="230" r="1.3" fill="#d5a5c8" opacity=".6"/><circle cx="13" cy="361" r="1.3" fill="#d5a5c8" opacity=".6"/><circle cx="110" cy="492" r="1.3" fill="#d5a5c8" opacity=".6"/><circle cx="207" cy="83" r="3" fill="#d5a5c8" opacity=".6"/><circle cx="304" cy="214" r="1.3" fill="#d5a5c8" opacity=".6"/><circle cx="401" cy="345" r="1.3" fill="#d5a5c8" opacity=".6"/><circle cx="78" cy="476" r="1.3" fill="#d5a5c8" opacity=".6"/><circle cx="175" cy="67" r="1.3" fill="#d5a5c8" opacity=".6"/><circle cx="272" cy="198" r="1.3" fill="#d5a5c8" opacity=".6"/><circle cx="369" cy="329" r="1.3" fill="#d5a5c8" opacity=".6"/><circle cx="46" cy="460" r="3" fill="#d5a5c8" opacity=".6"/><circle cx="143" cy="51" r="1.3" fill="#d5a5c8" opacity=".6"/><circle cx="240" cy="182" r="1.3" fill="#d5a5c8" opacity=".6"/><circle cx="337" cy="313" r="1.3" fill="#d5a5c8" opacity=".6"/><circle cx="14" cy="444" r="1.3" fill="#d5a5c8" opacity=".6"/><circle cx="111" cy="35" r="1.3" fill="#d5a5c8" opacity=".6"/><circle cx="208" cy="166" r="1.3" fill="#d5a5c8" opacity=".6"/><circle cx="305" cy="297" r="3" fill="#d5a5c8" opacity=".6"/><circle cx="402" cy="428" r="1.3" fill="#d5a5c8" opacity=".6"/><circle cx="79" cy="19" r="1.3" fill="#d5a5c8" opacity=".6"/><circle cx="176" cy="150" r="1.3" fill="#d5a5c8" opacity=".6"/><circle cx="273" cy="281" r="1.3" fill="#d5a5c8" opacity=".6"/><circle cx="370" cy="412" r="1.3" fill="#d5a5c8" opacity=".6"/><circle cx="47" cy="3" r="1.3" fill="#d5a5c8" opacity=".6"/><circle cx="144" cy="134" r="3" fill="#d5a5c8" opacity=".6"/><circle cx="241" cy="265" r="1.3" fill="#d5a5c8" opacity=".6"/><path d="M169 264 Q87 307 127 384 Q93 436 174 418 Q220 392 276 420 Q336 377 292 339 Q287 292 248 258" fill="url(#armor)" stroke="#d5a5c8" stroke-width="3"/><path d="M170 156 Q202 114 247 157 L252 220 Q247 257 207 266 Q174 251 163 218Z" fill="url(#armor)" stroke="#d5a5c8" stroke-width="4"/><path d="M173 203 L200 207 L192 223 L176 218 M218 207 L248 203 L245 218 L224 223" fill="#d5a5c8"/><path d="M193 248 Q209 236 229 246" fill="none" stroke="#d5a5c8" stroke-width="3"/><path d="M0 426 Q210 379 420 426 V580 H0Z" fill="#0b090e" opacity=".94"/><text x="210" y="467" fill="#d5a5c8" text-anchor="middle" font-size="12" letter-spacing="4" font-family="serif">HURRAS · NEXALIS</text><text x="210" y="506" fill="#f6ead5" text-anchor="middle" font-size="21" font-family="serif" font-weight="bold">Espírito Errante</text><text x="210" y="543" fill="#d5a5c8" font-size="12" font-family="sans-serif" text-anchor="middle">ESPÍRITO · NIVEL 3</text></svg>