<svg xmlns="http://www.w3.org/2000/svg" viewBox="0 0 420 580" role="img" aria-label="Serpente do Pântano"><defs><radialGradient id="bg"><stop stop-color="#36612b"/><stop offset=".65" stop-color="#19111d"/><stop offset="1" stop-color="#06070b"/></radialGradient><linearGradient id="armor"><stop stop-color="#36612b"/><stop offset=".55" stop-color="#13121a"/><stop offset="1" stop-color="#ade17a"/></linearGradient></defs><rect width="420" height="580" fill="url(#bg)"/><g fill="none" stroke="#ade17a" stroke-opacity=".3"><circle cx="210" cy="228" r="159"/><circle cx="210" cy="228" r="176" stroke-dasharray="9 12"/></g><circle cx="168" cy="456" r="3" fill="#ade17a" opacity=".6"/><circle cx="265" cy="47" r="1.3" fill="#ade17a" opacity=".6"/><circle cx="362" cy="178" r="1.3" fill="#ade17a" opacity=".6"/><circle cx="39" cy="309" r="1.3" fill="#ade17a" opacity=".6"/><circle cx="136" cy="440" r="1.3" fill="#ade17a" opacity=".6"/><circle cx="233" cy="31" r="1.3" fill="#ade17a" opacity=".6"/><circle cx="330" cy="162" r="1.3" fill="#ade17a" opacity=".6"/><circle cx="7" cy="293" r="3" fill="#ade17a" opacity=".6"/><circle cx="104" cy="424" r="1.3" fill="#ade17a" opacity=".6"/><circle cx="201" cy="15" r="1.3" fill="#ade17a" opacity=".6"/><circle cx="298" cy="146" r="1.3" fill="#ade17a" opacity=".6"/><circle cx="395" cy="277" r="1.3" fill="#ade17a" opacity=".6"/><circle cx="72" cy="408" r="1.3" fill="#ade17a" opacity=".6"/><circle cx="169" cy="539" r="1.3" fill="#ade17a" opacity=".6"/><circle cx="266" cy="130" r="3" fill="#ade17a" opacity=".6"/><circle cx="363" cy="261" r="1.3" fill="#ade17a" opacity=".6"/><circle cx="40" cy="392" r="1.3" fill="#ade17a" opacity=".6"/><circle cx="137" cy="523" r="1.3" fill="#ade17a" opacity=".6"/><circle cx="234" cy="114" r="1.3" fill="#ade17a" opacity=".6"/><circle cx="331" cy="245" r="1.3" fill="#ade17a" opacity=".6"/><circle cx="8" cy="376" r="1.3" fill="#ade17a" opacity=".6"/><circle cx="105" cy="507" r="3" fill="#ade17a" opacity=".6"/><circle cx="202" cy="98" r="1.3" fill="#ade17a" opacity=".6"/><circle cx="299" cy="229" r="1.3" fill="#ade17a" opacity=".6"/><circle cx="396" cy="360" r="1.3" fill="#ade17a" opacity=".6"/><circle cx="73" cy="491" r="1.3" fill="#ade17a" opacity=".6"/><circle cx="170" cy="82" r="1.3" fill="#ade17a" opacity=".6"/><circle cx="267" cy="213" r="1.3" fill="#ade17a" opacity=".6"/><circle cx="364" cy="344" r="3" fill="#ade17a" opacity=".6"/><circle cx="41" cy="475" r="1.3" fill="#ade17a" opacity=".6"/><circle cx="138" cy="66" r="1.3" fill="#ade17a" opacity=".6"/><circle cx="235" cy="197" r="1.3" fill="#ade17a" opacity=".6"/><circle cx="332" cy="328" r="1.3" fill="#ade17a" opacity=".6"/><circle cx="9" cy="459" r="1.3" fill="#ade17a" opacity=".6"/><circle cx="106" cy="50" r="1.3" fill="#ade17a" opacity=".6"/><circle cx="203" cy="181" r="3" fill="#ade17a" opacity=".6"/><circle cx="300" cy="312" r="1.3" fill="#ade17a" opacity=".6"/><path d="M166 257 Q128 271 98 420 L163 398 L189 313 L189 420 L228 420 L232 320 L256 399 L322 422 Q296 272 250 255Z" fill="url(#armor)" stroke="#ade17a" stroke-width="3"/><path d="M170 156 Q202 114 247 157 L252 220 Q247 257 207 266 Q174 251 163 218Z" fill="url(#armor)" stroke="#ade17a" stroke-width="4"/><path d="M173 203 L200 207 L192 223 L176 218 M218 207 L248 203 L245 218 L224 223" fill="#ade17a"/><path d="M193 248 Q209 236 229 246" fill="none" stroke="#ade17a" stroke-width="3"/><path d="M0 426 Q210 379 420 426 V580 H0Z" fill="#0b090e" opacity=".94"/><text x="210" y="467" fill="#ade17a" text-anchor="middle" font-size="12" letter-spacing="4" font-family="serif">HURRAS · NEXALIS</text><text x="210" y="506" fill="#f6ead5" text-anchor="middle" font-size="21" font-family="serif" font-weight="bold">Serpente do Pântano</text><text x="210" y="543" fill="#ade17a" font-size="12" font-family="sans-serif" text-anchor="middle">ANIMAL · NIVEL 4</text></svg>